<svg width="12" height="12" viewBox="0 0 12 12" fill="none" xmlns="http://www.w3.org/2000/svg">
<path d="M3.0625 6.075C3.27917 5.525 3.53967 4.99583 3.844 4.4875C4.14833 3.97916 4.492 3.5 4.875 3.05L4.225 2.9125C4.05833 2.87916 3.89583 2.8875 3.7375 2.9375C3.57917 2.9875 3.44167 3.07083 3.325 3.1875L1.75 4.7625C1.625 4.8875 1.577 5.0375 1.606 5.2125C1.635 5.3875 1.733 5.50833 1.9 5.575L3.0625 6.075ZM10.4125 1.2C9.52917 1.15833 8.68967 1.32916 7.894 1.7125C7.09833 2.09583 6.38783 2.6 5.7625 3.225C5.3625 3.625 5.01033 4.05833 4.706 4.525C4.40167 4.99166 4.13733 5.48333 3.913 6C3.87133 6.10833 3.8505 6.21883 3.8505 6.3315C3.8505 6.44416 3.89217 6.542 3.9755 6.625L5.538 8.1875C5.62133 8.27083 5.71933 8.3125 5.832 8.3125C5.94467 8.3125 6.055 8.29166 6.163 8.25C6.67967 8.025 7.17133 7.76033 7.638 7.456C8.10467 7.15166 8.538 6.79966 8.938 6.4C9.563 5.775 10.0672 5.06466 10.4505 4.269C10.8338 3.47333 11.0045 2.63366 10.9625 1.75C10.9625 1.68333 10.9458 1.61666 10.9125 1.55C10.8792 1.48333 10.8375 1.425 10.7875 1.375C10.7375 1.325 10.6792 1.28333 10.6125 1.25C10.5458 1.21666 10.4792 1.2 10.4125 1.2ZM6.95 4.219C6.95 3.93966 7.04583 3.70416 7.2375 3.5125C7.42917 3.32083 7.66467 3.225 7.944 3.225C8.22333 3.225 8.45867 3.32083 8.65 3.5125C8.84133 3.70416 8.93717 3.93966 8.9375 4.219C8.93783 4.49833 8.842 4.73366 8.65 4.925C8.458 5.11633 8.22267 5.21216 7.944 5.2125C7.66533 5.21283 7.42983 5.117 7.2375 4.925C7.04517 4.733 6.94933 4.49766 6.95 4.219ZM6.0875 9.1L6.5875 10.2625C6.65417 10.4292 6.775 10.5292 6.95 10.5625C7.125 10.5958 7.275 10.55 7.4 10.425L8.975 8.85C9.09167 8.73333 9.175 8.59383 9.225 8.4315C9.275 8.26917 9.28333 8.1045 9.25 7.9375L9.125 7.2875C8.66667 7.67083 8.1855 8.01467 7.6815 8.319C7.1775 8.62333 6.64617 8.88367 6.0875 9.1ZM2.025 8.025C2.31667 7.73333 2.67083 7.58533 3.0875 7.581C3.50417 7.57666 3.85833 7.7205 4.15 8.0125C4.44167 8.3045 4.5875 8.65866 4.5875 9.075C4.5875 9.49133 4.44167 9.8455 4.15 10.1375C3.75 10.5375 3.277 10.775 2.731 10.85C2.185 10.925 1.63717 11 1.0875 11.075C1.1625 10.525 1.23967 9.97717 1.319 9.4315C1.39833 8.88583 1.63367 8.417 2.025 8.025Z" fill="#D93C63"/>
</svg>
