<svg width="7" height="9" viewBox="0 0 7 9" fill="none" xmlns="http://www.w3.org/2000/svg">
<path d="M3.5 2.4C3.4 2.275 3.27083 2.17717 3.1125 2.1065C2.95417 2.03583 2.78333 2.00033 2.6 2C2.3 2 2.04167 2.10833 1.825 2.325C1.60833 2.54167 1.5 2.8 1.5 3.1C1.5 3.25833 1.52283 3.40417 1.5685 3.5375C1.61417 3.67083 1.708 3.82917 1.85 4.0125C1.96667 4.1625 2.12917 4.34167 2.3375 4.55C2.54583 4.75833 2.8125 5.0125 3.1375 5.3125C3.1875 5.3625 3.24367 5.4 3.306 5.425C3.36833 5.45 3.433 5.4625 3.5 5.4625C3.567 5.4625 3.6315 5.45 3.6935 5.425C3.7555 5.4 3.81183 5.3625 3.8625 5.3125C4.17917 5.02083 4.44167 4.773 4.65 4.569C4.85833 4.365 5.02083 4.18367 5.1375 4.025C5.27917 3.84167 5.375 3.68117 5.425 3.5435C5.475 3.40583 5.5 3.258 5.5 3.1C5.5 2.8 5.39167 2.54167 5.175 2.325C4.95833 2.10833 4.7 2 4.4 2C4.225 2 4.05617 2.03533 3.8935 2.106C3.73083 2.17667 3.59967 2.27467 3.5 2.4ZM3.5 7.5L1.4 8.4C1.06667 8.54167 0.75 8.51467 0.45 8.319C0.15 8.12333 0 7.84617 0 7.4875V1C0 0.725 0.0979999 0.489667 0.294 0.294C0.49 0.0983334 0.725333 0.000333333 1 0H6C6.275 0 6.5105 0.098 6.7065 0.294C6.9025 0.49 7.00033 0.725333 7 1V7.4875C7 7.84583 6.85 8.123 6.55 8.319C6.25 8.515 5.93333 8.542 5.6 8.4L3.5 7.5Z" fill="#D93C63"/>
</svg>
