<svg width="12" height="12" viewBox="0 0 12 12" fill="none" xmlns="http://www.w3.org/2000/svg">
<path d="M6 1.5L11.5 5.625L10.9 6.425L10 5.75V10.5H2V5.75L1.1 6.425L0.5 5.625L6 1.5ZM3.675 6.025C3.675 6.46667 3.9125 6.9375 4.3875 7.4375C4.8625 7.9375 5.4 8.45833 6 9C6.6 8.45833 7.1375 7.9375 7.6125 7.4375C8.0875 6.9375 8.325 6.46667 8.325 6.025C8.325 5.65833 8.2 5.35417 7.95 5.1125C7.7 4.87083 7.4 4.75 7.05 4.75C6.83333 4.75 6.63533 4.79383 6.456 4.8815C6.27667 4.96917 6.12467 5.08367 6 5.225C5.875 5.08333 5.71883 4.96883 5.5315 4.8815C5.34417 4.79417 5.15033 4.75033 4.95 4.75C4.6 4.75 4.3 4.87083 4.05 5.1125C3.8 5.35417 3.675 5.65833 3.675 6.025Z" fill="#D93C63"/>
</svg>
