<svg width="12" height="12" viewBox="0 0 12 12" fill="none" xmlns="http://www.w3.org/2000/svg">
<path d="M6 7.2375L6.9625 7.8125C7.05417 7.87083 7.14383 7.86883 7.2315 7.8065C7.31917 7.74417 7.35033 7.65867 7.325 7.55L7.075 6.4625L7.925 5.725C8.00833 5.65 8.03333 5.5605 8 5.4565C7.96667 5.3525 7.89167 5.29617 7.775 5.2875L6.6625 5.2L6.225 4.1625C6.18333 4.0625 6.10833 4.0125 6 4.0125C5.89167 4.0125 5.81667 4.0625 5.775 4.1625L5.3375 5.2L4.225 5.2875C4.10833 5.29583 4.03333 5.35217 4 5.4565C3.96667 5.56083 3.99167 5.65033 4.075 5.725L4.925 6.4625L4.675 7.55C4.65 7.65833 4.68133 7.74383 4.769 7.8065C4.85667 7.86917 4.94617 7.87117 5.0375 7.8125L6 7.2375ZM4.325 10H3C2.725 10 2.48967 9.90217 2.294 9.7065C2.09833 9.51083 2.00033 9.27533 2 9V7.675L1.0375 6.7C0.945833 6.6 0.875 6.48967 0.825 6.369C0.775 6.24833 0.75 6.12533 0.75 6C0.75 5.87467 0.775 5.75183 0.825 5.6315C0.875 5.51117 0.945833 5.40067 1.0375 5.3L2 4.325V3C2 2.725 2.098 2.48967 2.294 2.294C2.49 2.09833 2.72533 2.00033 3 2H4.325L5.3 1.0375C5.4 0.945833 5.5105 0.875 5.6315 0.825C5.7525 0.775 5.87533 0.75 6 0.75C6.12467 0.75 6.24767 0.775 6.369 0.825C6.49033 0.875 6.60067 0.945833 6.7 1.0375L7.675 2H9C9.275 2 9.5105 2.098 9.7065 2.294C9.9025 2.49 10.0003 2.72533 10 3V4.325L10.9625 5.3C11.0542 5.4 11.125 5.5105 11.175 5.6315C11.225 5.7525 11.25 5.87533 11.25 6C11.25 6.12467 11.225 6.24767 11.175 6.369C11.125 6.49033 11.0542 6.60067 10.9625 6.7L10 7.675V9C10 9.275 9.90217 9.5105 9.7065 9.7065C9.51083 9.9025 9.27533 10.0003 9 10H7.675L6.7 10.9625C6.6 11.0542 6.48967 11.125 6.369 11.175C6.24833 11.225 6.12533 11.25 6 11.25C5.87467 11.25 5.75183 11.225 5.6315 11.175C5.51117 11.125 5.40067 11.0542 5.3 10.9625L4.325 10Z" fill="#D93C63"/>
</svg>
