<svg width="92" height="92" viewBox="0 0 92 92" fill="none" xmlns="http://www.w3.org/2000/svg">
<path d="M76.6667 92C72.4074 92 68.787 90.6583 65.8056 87.975C62.8241 85.2917 61.3333 82.0333 61.3333 78.2C61.3333 77.74 61.4611 76.6667 61.7167 74.98L25.8111 56.12C24.4481 57.27 22.8722 58.1716 21.0833 58.8248C19.2944 59.478 17.3778 59.8031 15.3333 59.8C11.0741 59.8 7.4537 58.4583 4.47222 55.775C1.49074 53.0917 0 49.8333 0 46C0 42.1667 1.49074 38.9083 4.47222 36.225C7.4537 33.5417 11.0741 32.2 15.3333 32.2C17.3778 32.2 19.2944 32.5266 21.0833 33.1798C22.8722 33.833 24.4481 34.7331 25.8111 35.88L61.7167 17.02C61.5463 16.4833 61.4407 15.9666 61.3998 15.4698C61.3589 14.973 61.3367 14.4164 61.3333 13.8C61.3333 9.96667 62.8241 6.70833 65.8056 4.025C68.787 1.34167 72.4074 0 76.6667 0C80.9259 0 84.5463 1.34167 87.5278 4.025C90.5093 6.70833 92 9.96667 92 13.8C92 17.6333 90.5093 20.8917 87.5278 23.575C84.5463 26.2583 80.9259 27.6 76.6667 27.6C74.6222 27.6 72.7056 27.2734 70.9167 26.6202C69.1278 25.967 67.5518 25.0669 66.1889 23.92L30.2833 42.78C30.4537 43.3167 30.561 43.8349 30.6053 44.3348C30.6496 44.8347 30.6701 45.3897 30.6667 46C30.6633 46.6103 30.6428 47.1669 30.6053 47.6698C30.5679 48.1727 30.4605 48.6895 30.2833 49.22L66.1889 68.08C67.5518 66.93 69.1278 66.0299 70.9167 65.3798C72.7056 64.7297 74.6222 64.4031 76.6667 64.4C80.9259 64.4 84.5463 65.7417 87.5278 68.425C90.5093 71.1083 92 74.3667 92 78.2C92 82.0333 90.5093 85.2917 87.5278 87.975C84.5463 90.6583 80.9259 92 76.6667 92Z" fill="#F8F2E0"/>
</svg>
