<svg width="78" height="78" viewBox="0 0 78 78" fill="none" xmlns="http://www.w3.org/2000/svg">
<path fill-rule="evenodd" clip-rule="evenodd" d="M43.2393 75.6132L45.3531 72.0408C46.9911 69.2718 47.8101 67.8834 49.1283 67.119C50.4465 66.3507 52.104 66.3234 55.419 66.2649C60.3174 66.183 63.3867 65.8827 65.9607 64.8141C68.3266 63.8341 70.4763 62.3978 72.287 60.587C74.0978 58.7763 75.5341 56.6266 76.5141 54.2607C78 50.6805 78 46.137 78 37.05V33.15C78 20.3853 78 14.001 75.1257 9.3132C73.5187 6.68927 71.3137 4.48285 68.6907 2.8743C63.999 0 57.6147 0 44.85 0H33.15C20.3853 0 14.001 0 9.3132 2.8743C6.68927 4.48126 4.48285 6.68634 2.8743 9.3093C0 14.001 0 20.3892 0 33.15V37.05C0 46.137 4.64916e-07 50.6805 1.482 54.2607C2.46242 56.6269 3.89939 58.7768 5.71083 60.5876C7.52228 62.3984 9.67271 63.8346 12.0393 64.8141C14.6133 65.8827 17.6826 66.1791 22.581 66.2649C25.896 66.3234 27.5535 66.3507 28.8717 67.119C30.186 67.8834 31.0089 69.2679 32.6469 72.0408L34.7607 75.6132C36.6444 78.7956 41.3517 78.7956 43.2393 75.6132ZM21.45 30.0885C21.45 36.9213 29.8857 44.187 35.061 48.0012C36.8316 49.3077 37.7169 49.959 39 49.959C40.2831 49.959 41.1684 49.3077 42.939 48.0012C48.1143 44.187 56.55 36.9252 56.55 30.0885C56.55 19.6482 46.8975 15.7482 39 23.8134C31.1025 15.7482 21.45 19.6482 21.45 30.0885Z" fill="#F8F2E0"/>
</svg>
