<svg width="82" height="82" viewBox="0 0 82 82" fill="none" xmlns="http://www.w3.org/2000/svg">
<path d="M36.9 45.1V57.4C36.9 58.5617 37.2936 59.5361 38.0808 60.3233C38.868 61.1105 39.841 61.5027 41 61.5C42.1589 61.4973 43.1333 61.1037 43.9233 60.3192C44.7132 59.5347 45.1054 58.5617 45.1 57.4V45.1H57.4C58.5616 45.1 59.5361 44.7064 60.3233 43.9192C61.1105 43.132 61.5027 42.1589 61.5 41C61.4972 39.8411 61.1036 38.868 60.3192 38.0808C59.5347 37.2936 58.5616 36.9 57.4 36.9H45.1V24.6C45.1 23.4383 44.7064 22.4653 43.9192 21.6808C43.132 20.8963 42.1589 20.5027 41 20.5C39.841 20.4973 38.868 20.8909 38.0808 21.6808C37.2936 22.4707 36.9 23.4438 36.9 24.6V36.9H24.6C23.4383 36.9 22.4653 37.2936 21.6808 38.0808C20.8963 38.868 20.5027 39.8411 20.5 41C20.4973 42.1589 20.8909 43.1334 21.6808 43.9233C22.4707 44.7132 23.4438 45.1055 24.6 45.1H36.9ZM41 82C35.3283 82 29.9983 80.923 25.01 78.7692C20.0217 76.6153 15.6825 73.6948 11.9925 70.0075C8.3025 66.3202 5.38194 61.981 3.2308 56.99C1.07967 51.9989 0.00273852 46.6689 5.18987e-06 41C-0.00272814 35.3311 1.0742 30.0011 3.2308 25.01C5.3874 20.0189 8.30797 15.6798 11.9925 11.9925C15.677 8.30523 20.0162 5.38467 25.01 3.2308C30.0038 1.07693 35.3338 0 41 0C46.6662 0 51.9962 1.07693 56.99 3.2308C61.9838 5.38467 66.3229 8.30523 70.0075 11.9925C73.692 15.6798 76.6139 20.0189 78.7732 25.01C80.9326 30.0011 82.0081 35.3311 81.9999 41C81.9917 46.6689 80.9148 51.9989 78.7692 56.99C76.6235 61.981 73.7029 66.3202 70.0075 70.0075C66.312 73.6948 61.9728 76.6167 56.99 78.7733C52.0071 80.9299 46.6771 82.0054 41 82Z" fill="#F8F2E0"/>
</svg>
