<svg width="63" height="45" viewBox="0 0 63 45" fill="none" xmlns="http://www.w3.org/2000/svg">
<path fill-rule="evenodd" clip-rule="evenodd" d="M62.7083 2.875C62.7083 3.6375 62.4252 4.36877 61.9212 4.90793C61.4172 5.4471 60.7336 5.75 60.0208 5.75H2.6875C1.97473 5.75 1.29115 5.4471 0.78715 4.90793C0.283146 4.36877 0 3.6375 0 2.875C0 2.1125 0.283146 1.38123 0.78715 0.842068C1.29115 0.302901 1.97473 0 2.6875 0H60.0208C60.7336 0 61.4172 0.302901 61.9212 0.842068C62.4252 1.38123 62.7083 2.1125 62.7083 2.875ZM62.7083 22.0417C62.7083 22.8042 62.4252 23.5354 61.9212 24.0746C61.4172 24.6138 60.7336 24.9167 60.0208 24.9167H2.6875C1.97473 24.9167 1.29115 24.6138 0.78715 24.0746C0.283146 23.5354 0 22.8042 0 22.0417C0 21.2792 0.283146 20.5479 0.78715 20.0087C1.29115 19.4696 1.97473 19.1667 2.6875 19.1667H60.0208C60.7336 19.1667 61.4172 19.4696 61.9212 20.0087C62.4252 20.5479 62.7083 21.2792 62.7083 22.0417ZM62.7083 41.2083C62.7083 41.9708 62.4252 42.7021 61.9212 43.2413C61.4172 43.7804 60.7336 44.0833 60.0208 44.0833H2.6875C1.97473 44.0833 1.29115 43.7804 0.78715 43.2413C0.283146 42.7021 0 41.9708 0 41.2083C0 40.4458 0.283146 39.7146 0.78715 39.1754C1.29115 38.6362 1.97473 38.3333 2.6875 38.3333H60.0208C60.7336 38.3333 61.4172 38.6362 61.9212 39.1754C62.4252 39.7146 62.7083 40.4458 62.7083 41.2083Z" fill="#F8F2E0"/>
</svg>
