<svg width="70" height="70" viewBox="0 0 70 70" fill="none" xmlns="http://www.w3.org/2000/svg">
<path d="M64.5556 70L40.0556 45.5C38.1111 47.0556 35.875 48.287 33.3472 49.1944C30.8194 50.1018 28.1296 50.5556 25.2778 50.5556C18.213 50.5556 12.2344 48.1082 7.34222 43.2133C2.45 38.3185 0.00259465 32.34 2.05761e-06 25.2778C-0.00259053 18.2156 2.44482 12.237 7.34222 7.34222C12.2396 2.44741 18.2181 0 25.2778 0C32.3374 0 38.3172 2.44741 43.2172 7.34222C48.1172 12.237 50.5633 18.2156 50.5556 25.2778C50.5556 28.1296 50.1019 30.8194 49.1944 33.3472C48.287 35.875 47.0556 38.1111 45.5 40.0556L70 64.5556L64.5556 70ZM25.2778 42.7778C30.1389 42.7778 34.2715 41.077 37.6756 37.6756C41.0796 34.2741 42.7804 30.1415 42.7778 25.2778C42.7752 20.4141 41.0744 16.2828 37.6756 12.8839C34.2767 9.485 30.1441 7.78296 25.2778 7.77778C20.4115 7.77259 16.2802 9.47463 12.8839 12.8839C9.4876 16.2931 7.78556 20.4244 7.77778 25.2778C7.77 30.1311 9.47204 34.2637 12.8839 37.6756C16.2957 41.0874 20.427 42.7881 25.2778 42.7778Z" fill="#F8F2E0"/>
</svg>
