<svg width="39" height="39" viewBox="0 0 39 39" fill="none" xmlns="http://www.w3.org/2000/svg">
<path d="M38.9346 14.7453C38.8116 14.3724 38.5879 14.045 38.2907 13.8026C37.9934 13.5601 37.6353 13.4132 37.2599 13.3796L26.1794 11.6878L21.2137 1.14982C21.0542 0.805207 20.8053 0.514572 20.4953 0.311214C20.1853 0.107856 19.8269 0 19.4611 0C19.0953 0 18.7368 0.107856 18.4269 0.311214C18.1169 0.514572 17.8679 0.805207 17.7085 1.14982L12.7427 11.6674L1.66232 13.3796C1.3019 13.4332 0.963069 13.5915 0.68426 13.8365C0.40545 14.0815 0.197831 14.4034 0.0849624 14.7656C-0.0183543 15.1196 -0.0276257 15.4964 0.0581431 15.8555C0.143912 16.2146 0.321483 16.5425 0.5718 16.8039L8.61435 24.9571L6.667 36.5347C6.58838 36.9187 6.61745 37.3184 6.75071 37.6855C6.88397 38.0527 7.11575 38.3718 7.41815 38.6043C7.72056 38.8369 8.08072 38.973 8.45531 38.9964C8.8299 39.0198 9.20296 38.9293 9.52961 38.736L19.4611 33.2938L29.3926 38.736C29.6659 38.8974 29.9746 38.9817 30.2884 38.9806C30.7009 38.9821 31.1032 38.8465 31.4373 38.5933C31.7394 38.3668 31.9733 38.0545 32.1113 37.6933C32.2493 37.3321 32.2857 36.9372 32.2162 36.555L30.2689 24.9775L38.3114 16.8243C38.5926 16.575 38.8004 16.2473 38.9107 15.8793C39.021 15.5112 39.0293 15.118 38.9346 14.7453ZM26.9584 22.8984C26.733 23.1276 26.5639 23.4104 26.4656 23.7227C26.3672 24.035 26.3426 24.3677 26.3937 24.6921L27.7957 33.253L20.4737 29.1764C20.1891 29.0291 19.8759 28.9524 19.5585 28.9524C19.241 28.9524 18.9278 29.0291 18.6432 29.1764L11.3212 33.253L12.7233 24.6921C12.7744 24.3677 12.7497 24.035 12.6513 23.7227C12.553 23.4104 12.3839 23.1276 12.1585 22.8984L6.31648 16.7836L14.5148 15.5402C14.8303 15.4943 15.1302 15.368 15.3882 15.1726C15.6462 14.9771 15.8545 14.7184 15.9948 14.4191L19.4611 6.65322L23.1221 14.4395C23.2624 14.7388 23.4707 14.9975 23.7287 15.193C23.9867 15.3884 24.2866 15.5146 24.6021 15.5606L32.8004 16.8039L26.9584 22.8984Z" fill="black"/>
</svg>
